<?xml version="1.0" encoding="UTF-8" standalone="no"?><!DOCTYPE svg PUBLIC "-//W3C//DTD SVG 1.1//EN" "http://www.w3.org/Graphics/SVG/1.1/DTD/svg11.dtd"><svg width="100%" height="100%" viewBox="0 0 784 841" version="1.1" xmlns="http://www.w3.org/2000/svg" xmlns:xlink="http://www.w3.org/1999/xlink" xml:space="preserve" xmlns:serif="http://www.serif.com/" style="fill-rule:evenodd;clip-rule:evenodd;stroke-linejoin:round;stroke-miterlimit:2;"><path d="M328.463,375.891l-167.44,0c-19.869,0 -37.237,-5.857 -48.159,-13.387l-8.694,-7.393l-7.701,-10.718l-3.61,-9.372l-1.357,-10.678l0,-36.744l1.357,-10.678l3.61,-9.372l7.701,-10.719l8.694,-7.393c10.922,-7.529 28.29,-13.386 48.159,-13.386l19.01,-0l-0,-50.954l-81.029,-0c-28.144,-0 -51.852,-10.793 -63.981,-23.517l-9.915,-14.545l-3.135,-9.331l-1.14,-10.261l0,-48.956l1.14,-10.261l3.135,-9.33l9.915,-14.546c12.129,-12.723 35.837,-23.517 63.981,-23.517l585.077,0c28.144,0 51.851,10.794 63.981,23.517l9.915,14.546l3.135,9.33l1.14,10.261l-0,48.956l-1.14,10.261l-3.135,9.331l-9.915,14.545c-12.13,12.724 -35.837,23.517 -63.981,23.517l-81.029,-0l0,50.954l19.01,-0c19.869,-0 37.237,5.857 48.159,13.386l8.694,7.393l7.701,10.719l3.609,9.372l1.358,10.678l-0,36.744l-1.358,10.678l-3.609,9.372l-7.701,10.718l-8.694,7.393c-10.922,7.53 -28.29,13.387 -48.159,13.387l-167.44,0l-0,87.256l105.708,0c11.891,0 22.873,6.364 28.785,16.681c5.912,10.318 5.85,23.01 -0.162,33.269l-169.818,289.77c-5.954,10.16 -16.848,16.402 -28.623,16.402c-11.776,-0 -22.669,-6.242 -28.623,-16.402l-169.818,-289.77c-6.013,-10.259 -6.074,-22.951 -0.162,-33.269c5.912,-10.317 16.894,-16.681 28.785,-16.681l107.769,0l-0,-87.256Z" style="fill:none;stroke:#fff;stroke-width:41.67px;"/><path d="M409.282,718.105l97.799,-166.929c4.628,-7.899 1.972,-18.07 -5.927,-22.698c-7.899,-4.628 -18.07,-1.972 -22.698,5.927l-97.799,166.929c-4.628,7.9 -1.972,18.07 5.927,22.698c7.9,4.628 18.07,1.972 22.698,-5.927Z" style="fill:#fff;"/></svg>